<?xml version="1.0" encoding="utf-8"?>
<!DOCTYPE svg PUBLIC "-//W3C//DTD SVG 1.1//EN" "http://www.w3.org/Graphics/SVG/1.1/DTD/svg11.dtd">
<svg version="1.1" xmlns="http://www.w3.org/2000/svg" xmlns:xlink="http://www.w3.org/1999/xlink" x="0px" y="0px" viewBox="0 0 1000 1000" enable-background="new 0 0 1000 1000" xml:space="preserve">
<metadata> Svg Vector Icons : http://www.onlinewebfonts.com/icon </metadata>
<g><g transform="translate(0.000000,511.000000) scale(0.100000,-0.100000)"><path d="M974.7,3376.1c-105.3-28.7-212.5-120.6-260.3-222c-26.8-61.3-30.6-327.3-36.4-2894.1l-3.8-2829H387.1H100v-111v-109.1l250.7-197.1l250.7-195.2H5000h4398.5l250.8,195.2l250.7,197.1v109.1v111h-287.1h-287.1V206.5c0,1965.7-5.7,2802.2-21,2873c-28.7,135.9-139.7,254.6-271.8,294.8c-84.2,24.9-585.7,28.7-4031,26.8C1847.5,3401,1047.5,3395.3,974.7,3376.1z M5627.8,1848.7c-5.7-13.4-210.5-625.9-457.5-1359l-447.9-1336h-157c-88,0-158.9,3.8-158.9,9.6c0,7.6,541.7,1625,807.7,2406l101.4,302.4h160.8C5595.3,1871.7,5633.5,1866,5627.8,1848.7z M4134.8,1039.1l-5.7-88.1l-679.5-315.8c-373.2-174.2-687.1-323.5-694.8-331.1c-7.7-7.7,298.6-160.8,679.5-338.8l694.8-325.4l5.7-166.5c1.9-91.9,1.9-166.5-1.9-166.5c-3.8,0-403.9,191.4-886.2,426.8l-878.6,426.9l-5.7,134l-5.7,134l886.2,430.7l886.2,430.7l5.7-82.3C4138.7,1161.6,4138.7,1086.9,4134.8,1039.1z M7427,541.4l214.4-103.4V298.3V156.7l-872.8-419.2c-480.4-231.6-880.5-424.9-892-426.8c-9.6-3.8-15.3,63.2-11.5,160.8l5.7,166.5l704.4,325.4c386.6,178,702.5,329.2,702.5,336.9c-1.9,5.8-319.6,157-708.2,335l-708.2,325.4v166.5v166.5L6537,968.2C6906.4,790.2,7308.3,596.9,7427,541.4z M5880.5-2580.4c0-36.4-82.3-137.8-137.8-170.3c-59.3-36.4-97.6-38.3-742.7-38.3c-618.2,0-685.2,3.8-742.7,34.4c-55.5,30.6-137.8,132.1-137.8,172.3c0,7.7,396.2,13.4,880.5,13.4C5484.3-2568.9,5880.5-2574.7,5880.5-2580.4z" fill="#ffffff"/></g></g>
</svg>